#!OML:ASF H:\Pregnant\Project 1\Capture day 1\Session 1\femalepreg.ASF
:FULLY-SPECIFIED
:DEGREES
706
root -7.44466 16.0616 -11.019 25.8844 -6.69252 -2.57528
lowerback -11.9101 -2.42836 -5.91093
upperback -4.48341 -2.53424 -1.26855
thorax 2.16052 -1.24154 1.65423
lowerneck -17.3454 2.77571 2.53699
upperneck 23.865 2.55477 2.18629
head 10.5392 1.65363 0.711429
rclavicle 9.74045e-015 2.8625e-014
rhumerus -63.1983 6.55348 -81.6671
rradius 26.6459
rwrist -8.23663
rhand -16.4105 -18.531
rfingers 7.12502
rthumb 9.80413 -48.2828
lclavicle 9.74045e-015 2.8625e-014
lhumerus -33.1352 -22.6642 93.5213
lradius 59.7563
lwrist 26.2156
lhand -19.7224 -8.77548
lfingers 7.12502
lthumb 6.60779 21.1014
rfemur -62.3954 14.594 6.50597
rtibia 43.5726
rfoot -9.58088 -15.7106
rtoes -17.811
lfemur -25.2141 -12.4505 -18.5407
ltibia 26.047
lfoot -17.8613 -0.406859
ltoes -21.6648
707
root -7.49753 16.0613 -10.8456 25.903 -6.52817 -2.47008
lowerback -11.9525 -2.46618 -5.86603
upperback -4.53087 -2.5942 -1.06285
thorax 2.14589 -1.26934 1.83425
lowerneck -17.1595 2.70858 2.51497
upperneck 23.4925 2.53019 1.99616
head 10.3694 1.61458 0.635565
rclavicle 1.94809e-014 -1.11319e-014
rhumerus -63.2664 6.59374 -81.4786
rradius 27.111
rwrist -8.96957
rhand -16.0276 -18.3336
rfingers 7.12502
rthumb 10.1736 -48.0676
lclavicle 1.94809e-014 -1.11319e-014
lhumerus -33.6723 -23.2271 93.7582
lradius 61.0414
lwrist 25.21
lhand -19.8811 -9.89605
lfingers 7.12502
lthumb 6.45456 19.9856
rfemur -62.7059 15.1635 5.3069
rtibia 41.6839
rfoot -9.64755 -16.0269
rtoes -18.0223
lfemur -24.0585 -12.3531 -18.6567
ltibia 25.15
lfoot -17.5923 -0.755014
ltoes -22.2344
708
root -7.55067 16.0575 -10.6713 25.9101 -6.3675 -2.34053
lowerback -12.033 -2.49536 -5.83753
upperback -4.55438 -2.63698 -0.852337
thorax 2.17687 -1.28987 2.02896
lowerneck -16.9546 2.63612 2.4888
upperneck 23.0676 2.51178 1.75876
head 10.1787 1.57246 0.5445
rclavicle -6.55989e-015 2.06736e-014
rhumerus -63.2361 6.61862 -81.2856
rradius 27.5199
rwrist -9.66051
rhand -15.5736 -18.1473
rfingers 7.12502
rthumb 10.6115 -47.8594
lclavicle -6.55989e-015 2.06736e-014
lhumerus -34.1783 -23.7347 93.9665
lradius 62.2646
lwrist 24.5366
lhand -20.0791 -10.7933
lfingers 7.12502
lthumb 6.26346 19.0941
rfemur -63.0149 15.7037 4.11328
rtibia 40.0064
rfoot -9.7631 -16.3485
rtoes -18.2587
lfemur -22.9486 -12.2627 -18.793
ltibia 24.3537
lfoot -17.3041 -1.1153
ltoes -22.815
709
root -7.60431 16.05 -10.4965 25.9064 -6.20444 -2.18691
lowerback -12.1278 -2.50815 -5.81164
upperback -4.57389 -2.65635 -0.65261
thorax 2.21771 -1.29906 2.21676
lowerneck -16.7314 2.54903 2.48448
upperneck 22.6192 2.47869 1.47086
head 9.97847 1.52005 0.430764
rclavicle -1.76918e-014 -1.43125e-014
rhumerus -63.1543 6.59968 -81.104
rradius 27.8843
rwrist -10.2957
rhand -15.0849 -18.145
rfingers 7.12502
rthumb 11.0829 -47.8324
lclavicle -1.76918e-014 -1.43125e-014
lhumerus -34.6821 -24.2161 94.1438
lradius 63.4267
lwrist 24.2295
lhand -20.2274 -11.3768
lfingers 7.12502
lthumb 6.12025 18.5148
rfemur -63.3081 16.201 2.95093
rtibia 38.5559
rfoot -9.8385 -16.6742
rtoes -18.7447
lfemur -21.9029 -12.1993 -18.9421
ltibia 23.6852
lfoot -17.0036 -1.47649
ltoes -23.4124
710
root -7.65857 16.0388 -10.3212 25.8922 -6.03029 -2.01104
lowerback -12.2491 -2.50614 -5.78705
upperback -4.58418 -2.65359 -0.460047
thorax 2.28048 -1.29793 2.40007
lowerneck -16.4861 2.44522 2.48759
upperneck 22.1489 2.43052 1.13662
head 9.76838 1.45658 0.298629
rclavicle -3.49861e-014 1.35174e-014
rhumerus -63.0049 6.52979 -80.9228
rradius 28.1897
rwrist -10.88
rhand -14.6509 -18.4019
rfingers 7.12502
rthumb 11.5015 -48.0663
lclavicle -3.49861e-014 1.35174e-014
lhumerus -35.1749 -24.6719 94.2944
lradius 64.5194
lwrist 24.2634
lhand -20.298 -11.6518
lfingers 7.12502
lthumb 6.05207 18.2418
rfemur -63.5735 16.6643 1.82733
rtibia 37.3401
rfoot -9.87428 -17.0308
rtoes -19.3859
lfemur -20.9405 -12.1619 -19.0983
ltibia 23.1761
lfoot -16.7081 -1.8517
ltoes -24.0439
711
root -7.71358 16.0237 -10.1449 25.8615 -5.84373 -1.81882
lowerback -12.3841 -2.48605 -5.74979
upperback -4.5924 -2.62709 -0.282398
thorax 2.34958 -1.28531 2.56398
lowerneck -16.2225 2.32311 2.50522
upperneck 21.6817 2.36031 0.763561
head 9.55804 1.38063 0.149385
rclavicle 4.96962e-015 1.66979e-014
rhumerus -62.8156 6.40884 -80.767
rradius 28.4471
rwrist -11.4164
rhand -14.3502 -18.8233
rfingers 7.12502
rthumb 11.7915 -48.4713
lclavicle 4.96962e-015 1.66979e-014
lhumerus -35.6726 -25.1105 94.4133
lradius 65.5337
lwrist 24.5903
lhand -20.3032 -11.6587
lfingers 7.12502
lthumb 6.04715 18.235
rfemur -63.7896 17.0842 0.783842
rtibia 36.3619
rfoot -9.85891 -17.4194
rtoes -20.108
lfemur -20.0711 -12.157 -19.2561
ltibia 22.8664
lfoot -16.4382 -2.22781
ltoes -24.7872
712
root -7.76926 16.0033 -9.96759 25.8133 -5.64383 -1.61359
lowerback -12.5297 -2.45357 -5.69842
upperback -4.6024 -2.58529 -0.111223
thorax 2.42018 -1.26519 2.71557
lowerneck -15.9473 2.18507 2.50675
upperneck 21.2412 2.27392 0.372182
head 9.35595 1.29493 -0.0034909
rclavicle 1.31198e-014 -1.82882e-014
rhumerus -62.5921 6.27117 -80.6491
rradius 28.6644
rwrist -11.9275
rhand -14.2005 -19.4072
rfingers 7.12502
rthumb 11.9358 -49.047
lclavicle 1.31198e-014 -1.82882e-014
lhumerus -36.1858 -25.507 94.5078
lradius 66.4574
lwrist 25.1334
lhand -20.212 -11.4155
lfingers 7.12502
lthumb 6.13519 18.4757
rfemur -63.9351 17.4301 -0.120899
rtibia 35.6108
rfoot -9.8249 -17.8122
rtoes -20.832
lfemur -19.3131 -12.1613 -19.4155
ltibia 22.7923
lfoot -16.2138 -2.62851
ltoes -25.68
713
root -7.82538 15.977 -9.78895 25.7398 -5.43386 -1.40351
lowerback -12.7063 -2.41016 -5.62218
upperback -4.59537 -2.52962 0.056368
thorax 2.5229 -1.23939 2.85059
lowerneck -15.6774 2.03324 2.46891
upperneck 20.8368 2.17413 -0.0144884
head 9.16759 1.20159 -0.147629
rclavicle 2.80286e-014 5.56597e-015
rhumerus -62.3135 6.14196 -80.5861
rradius 28.8414
rwrist -12.4232
rhand -14.1175 -19.9018
rfingers 7.12502
rthumb 12.0158 -49.5369
lclavicle 2.80286e-014 5.56597e-015
lhumerus -36.6977 -25.8436 94.5665
lradius 67.285
lwrist 25.8168
lhand -20.1572 -11.1255
lfingers 7.12502
lthumb 6.18804 18.7641
rfemur -63.9683 17.6592 -0.798899
rtibia 35.0665
rfoot -9.82771 -18.1531
rtoes -21.4204
lfemur -18.669 -12.1569 -19.5734
ltibia 22.9794
lfoot -16.0462 -3.06728
ltoes -26.6925
714
root -7.88175 15.9457 -9.60852 25.6329 -5.22495 -1.19894
lowerback -12.893 -2.35172 -5.51534
upperback -4.57679 -2.45743 0.223551
thorax 2.6404 -1.20607 2.97056
lowerneck -15.4422 1.87122 2.37538
upperneck 20.5057 2.06385 -0.373269
head 9.01058 1.10327 -0.271865
rclavicle 3.55825e-014 7.15625e-015
rhumerus -61.987 6.03479 -80.5831
rradius 28.9759
rwrist -12.9031
rhand -14.1171 -20.2656
rfingers 7.12502
rthumb 12.0162 -49.9007
lclavicle 3.55825e-014 7.15625e-015
lhumerus -37.2121 -26.1302 94.5914
lradius 68.0028
lwrist 26.5862
lhand -20.1262 -10.7772
lfingers 7.12502
lthumb 6.21802 19.1115
rfemur -63.856 17.7313 -1.16332
rtibia 34.7006
rfoot -9.85437 -18.3676
rtoes -21.9665
lfemur -18.1333 -12.1571 -19.7224
ltibia 23.4373
lfoot -15.9271 -3.53851
ltoes -27.7718
715
root -7.93822 15.9091 -9.42609 25.4874 -5.02943 -1.00554
lowerback -13.0839 -2.27561 -5.37796
upperback -4.54717 -2.36609 0.39302
thorax 2.76879 -1.16376 3.0791
lowerneck -15.2576 1.70254 2.21857
upperneck 20.2717 1.9476 -0.69336
head 8.89544 1.00244 -0.371087
rclavicle 8.15017e-015 0
rhumerus -61.6148 5.96456 -80.6437
rradius 29.0668
rwrist -13.3642
rhand -14.1925 -20.6487
rfingers 7.12502
rthumb 11.9435 -50.288
lclavicle 8.15017e-015 0
lhumerus -37.7305 -26.3386 94.5769
lradius 68.6158
lwrist 27.4251
lhand -20.0419 -10.4121
lfingers 7.12502
lthumb 6.29938 19.4742
rfemur -63.5754 17.6273 -1.17045
rtibia 34.4951
rfoot -9.80779 -18.3259
rtoes -22.7438
lfemur -17.687 -12.1599 -19.863
ltibia 24.1445
lfoot -15.8333 -4.04445
ltoes -28.8415
